<svg xmlns="http://www.w3.org/2000/svg" viewBox="0 0 512 512" fill="none">
  <rect width="512" height="512" rx="64" fill="#069494"/>
  <g transform="translate(128, 80)">
    <!-- Lighthouse base -->
    <path d="M64 352 L192 352 L176 160 L80 160 Z" fill="white"/>
    <!-- Lighthouse top -->
    <rect x="80" y="120" width="96" height="40" fill="white"/>
    <!-- Light room -->
    <rect x="96" y="80" width="64" height="40" rx="4" fill="white"/>
    <!-- Light beacon -->
    <circle cx="128" cy="100" r="16" fill="#FFD700"/>
    <!-- Light rays -->
    <path d="M128 100 L40 60 L48 80 L128 100" fill="#FFD700" opacity="0.6"/>
    <path d="M128 100 L216 60 L208 80 L128 100" fill="#FFD700" opacity="0.6"/>
    <path d="M128 100 L20 100 L28 112 L128 100" fill="#FFD700" opacity="0.4"/>
    <path d="M128 100 L236 100 L228 112 L128 100" fill="#FFD700" opacity="0.4"/>
    <!-- Stripes -->
    <rect x="80" y="180" width="96" height="20" fill="#069494"/>
    <rect x="80" y="220" width="96" height="20" fill="#069494"/>
    <rect x="80" y="260" width="96" height="20" fill="#069494"/>
    <rect x="80" y="300" width="96" height="20" fill="#069494"/>
  </g>
</svg>
