<svg xmlns="http://www.w3.org/2000/svg" viewBox="0 0 400 300" fill="none">
  <!-- Background circle -->
  <circle cx="200" cy="150" r="120" fill="#069494" opacity="0.1"/>
  <circle cx="200" cy="150" r="90" fill="#069494" opacity="0.08"/>

  <!-- Decorative leaves/plants -->
  <path d="M80 220 Q60 180 90 160 Q70 190 80 220Z" fill="#5eead4" opacity="0.6"/>
  <path d="M70 230 Q45 200 75 175 Q55 205 70 230Z" fill="#069494" opacity="0.4"/>
  <path d="M320 220 Q340 180 310 160 Q330 190 320 220Z" fill="#5eead4" opacity="0.6"/>
  <path d="M330 230 Q355 200 325 175 Q345 205 330 230Z" fill="#069494" opacity="0.4"/>

  <!-- Ground/cushion -->
  <ellipse cx="200" cy="230" rx="70" ry="15" fill="#069494" opacity="0.2"/>

  <!-- Person body -->
  <path d="M200 130
           C160 140 140 180 150 220
           L170 220
           C165 195 175 170 200 165
           C225 170 235 195 230 220
           L250 220
           C260 180 240 140 200 130Z"
        fill="#069494"/>

  <!-- Crossed legs -->
  <path d="M150 220 Q170 235 200 230 Q230 235 250 220 Q235 245 200 245 Q165 245 150 220Z"
        fill="#0f766e"/>

  <!-- Head -->
  <circle cx="200" cy="105" r="30" fill="#fcd9b6"/>

  <!-- Hair -->
  <path d="M170 95 Q175 70 200 70 Q225 70 230 95 Q225 85 200 85 Q175 85 170 95Z"
        fill="#4a3728"/>

  <!-- Peaceful closed eyes -->
  <path d="M185 100 Q190 105 195 100" stroke="#4a3728" stroke-width="2" fill="none" stroke-linecap="round"/>
  <path d="M205 100 Q210 105 215 100" stroke="#4a3728" stroke-width="2" fill="none" stroke-linecap="round"/>

  <!-- Subtle smile -->
  <path d="M192 115 Q200 120 208 115" stroke="#c9a68a" stroke-width="2" fill="none" stroke-linecap="round"/>

  <!-- Arms in meditation pose -->
  <path d="M155 180 Q140 190 145 205 Q150 215 165 210" fill="#fcd9b6"/>
  <path d="M245 180 Q260 190 255 205 Q250 215 235 210" fill="#fcd9b6"/>

  <!-- Hands on knees -->
  <circle cx="165" cy="210" r="10" fill="#fcd9b6"/>
  <circle cx="235" cy="210" r="10" fill="#fcd9b6"/>

  <!-- Floating energy dots -->
  <circle cx="140" cy="100" r="4" fill="#5eead4" opacity="0.8"/>
  <circle cx="260" cy="90" r="3" fill="#5eead4" opacity="0.6"/>
  <circle cx="130" cy="140" r="3" fill="#14b8a6" opacity="0.5"/>
  <circle cx="270" cy="130" r="4" fill="#14b8a6" opacity="0.7"/>
  <circle cx="150" cy="70" r="2" fill="#069494" opacity="0.5"/>
  <circle cx="250" cy="60" r="3" fill="#069494" opacity="0.4"/>
</svg>