<svg xmlns="http://www.w3.org/2000/svg" viewBox="0 0 400 300" fill="none">
  <!-- Background heart shape -->
  <path d="M200 260 C120 200 40 150 40 100 C40 60 80 40 120 40 C150 40 180 60 200 90 C220 60 250 40 280 40 C320 40 360 60 360 100 C360 150 280 200 200 260 Z"
        fill="#069494" opacity="0.08"/>

  <!-- Connection lines between people -->
  <line x1="120" y1="140" x2="200" y2="120" stroke="#5eead4" stroke-width="2" opacity="0.5"/>
  <line x1="280" y1="140" x2="200" y2="120" stroke="#5eead4" stroke-width="2" opacity="0.5"/>
  <line x1="120" y1="140" x2="160" y2="200" stroke="#5eead4" stroke-width="2" opacity="0.5"/>
  <line x1="280" y1="140" x2="240" y2="200" stroke="#5eead4" stroke-width="2" opacity="0.5"/>
  <line x1="160" y1="200" x2="240" y2="200" stroke="#5eead4" stroke-width="2" opacity="0.5"/>

  <!-- Center person (leader/coach) -->
  <g transform="translate(200, 100)">
    <circle cx="0" cy="0" r="25" fill="#069494"/>
    <circle cx="0" cy="-5" r="15" fill="#fcd9b6"/>
    <path d="M-12 -15 Q0 -28 12 -15" fill="#4a3728"/>
    <circle cx="-5" cy="-7" r="2" fill="#4a3728"/>
    <circle cx="5" cy="-7" r="2" fill="#4a3728"/>
    <path d="M-4 2 Q0 6 4 2" stroke="#c9a68a" stroke-width="1.5" fill="none" stroke-linecap="round"/>
  </g>

  <!-- Left person -->
  <g transform="translate(120, 140)">
    <circle cx="0" cy="0" r="22" fill="#14b8a6"/>
    <circle cx="0" cy="-5" r="13" fill="#e8c4a0"/>
    <path d="M-10 -12 Q0 -22 10 -12" fill="#6b4423"/>
    <circle cx="-4" cy="-6" r="1.5" fill="#4a3728"/>
    <circle cx="4" cy="-6" r="1.5" fill="#4a3728"/>
    <path d="M-3 1 Q0 4 3 1" stroke="#c9a68a" stroke-width="1.5" fill="none" stroke-linecap="round"/>
  </g>

  <!-- Right person -->
  <g transform="translate(280, 140)">
    <circle cx="0" cy="0" r="22" fill="#0f766e"/>
    <circle cx="0" cy="-5" r="13" fill="#deb887"/>
    <path d="M-10 -15 Q0 -20 10 -15 Q8 -10 0 -12 Q-8 -10 -10 -15" fill="#2d1b0e"/>
    <circle cx="-4" cy="-6" r="1.5" fill="#4a3728"/>
    <circle cx="4" cy="-6" r="1.5" fill="#4a3728"/>
    <path d="M-3 1 Q0 4 3 1" stroke="#c9a68a" stroke-width="1.5" fill="none" stroke-linecap="round"/>
  </g>

  <!-- Bottom left person -->
  <g transform="translate(160, 210)">
    <circle cx="0" cy="0" r="20" fill="#5eead4"/>
    <circle cx="0" cy="-5" r="12" fill="#fcd9b6"/>
    <ellipse cx="0" cy="-16" rx="10" ry="6" fill="#8b4513"/>
    <circle cx="-4" cy="-5" r="1.5" fill="#4a3728"/>
    <circle cx="4" cy="-5" r="1.5" fill="#4a3728"/>
    <path d="M-3 1 Q0 4 3 1" stroke="#c9a68a" stroke-width="1.5" fill="none" stroke-linecap="round"/>
  </g>

  <!-- Bottom right person -->
  <g transform="translate(240, 210)">
    <circle cx="0" cy="0" r="20" fill="#2dd4bf"/>
    <circle cx="0" cy="-5" r="12" fill="#e8c4a0"/>
    <path d="M-8 -12 Q0 -20 8 -12 L6 -8 L-6 -8 Z" fill="#1a1a1a"/>
    <circle cx="-4" cy="-5" r="1.5" fill="#4a3728"/>
    <circle cx="4" cy="-5" r="1.5" fill="#4a3728"/>
    <path d="M-3 1 Q0 4 3 1" stroke="#c9a68a" stroke-width="1.5" fill="none" stroke-linecap="round"/>
  </g>

  <!-- Hands reaching together (center) -->
  <g transform="translate(200, 165)">
    <path d="M-15 0 Q-8 -10 0 -5 Q8 -10 15 0" stroke="#fcd9b6" stroke-width="6" fill="none" stroke-linecap="round"/>
    <circle cx="0" cy="-5" r="8" fill="#fb7185" opacity="0.8"/>
    <path d="M-3 -7 L0 -2 L3 -7" stroke="white" stroke-width="1.5" fill="none"/>
  </g>

  <!-- Floating hearts -->
  <path d="M80 80 C80 75 85 70 90 75 C95 70 100 75 100 80 C100 90 90 95 90 95 C90 95 80 90 80 80" fill="#fb7185" opacity="0.6"/>
  <path d="M310 70 C310 67 313 64 316 67 C319 64 322 67 322 70 C322 76 316 79 316 79 C316 79 310 76 310 70" fill="#fb7185" opacity="0.5"/>
  <path d="M60 180 C60 177 63 174 66 177 C69 174 72 177 72 180 C72 186 66 189 66 189 C66 189 60 186 60 180" fill="#fb7185" opacity="0.4"/>
  <path d="M340 160 C340 156 344 152 348 156 C352 152 356 156 356 160 C356 168 348 172 348 172 C348 172 340 168 340 160" fill="#fb7185" opacity="0.5"/>

  <!-- Decorative dots -->
  <circle cx="50" cy="100" r="4" fill="#5eead4" opacity="0.6"/>
  <circle cx="350" cy="90" r="3" fill="#5eead4" opacity="0.5"/>
  <circle cx="70" cy="220" r="3" fill="#069494" opacity="0.4"/>
  <circle cx="330" cy="230" r="4" fill="#069494" opacity="0.5"/>
</svg>