<svg xmlns="http://www.w3.org/2000/svg" viewBox="0 0 400 300" fill="none">
  <!-- Calming background -->
  <circle cx="200" cy="150" r="130" fill="#069494" opacity="0.05"/>
  <circle cx="200" cy="150" r="100" fill="#069494" opacity="0.05"/>

  <!-- Central shield/protection symbol -->
  <path d="M200 50 L260 80 L260 150 Q260 200 200 240 Q140 200 140 150 L140 80 Z"
        fill="url(#shieldGradient)" stroke="#069494" stroke-width="3"/>

  <!-- Shield inner design - hands holding -->
  <g transform="translate(200, 140)">
    <path d="M-30 10 C-25 -10 -10 -20 0 -15 C10 -20 25 -10 30 10 C25 25 10 35 0 30 C-10 35 -25 25 -30 10"
          fill="white" opacity="0.9"/>
    <!-- Heart in hands -->
    <path d="M0 15 C-15 5 -25 -5 -25 -15 C-25 -22 -18 -27 -10 -27 C-5 -27 0 -23 0 -18 C0 -23 5 -27 10 -27 C18 -27 25 -22 25 -15 C25 -5 15 5 0 15"
          fill="#fb7185"/>
  </g>

  <!-- Toolbox at bottom -->
  <g transform="translate(200, 250)">
    <rect x="-50" y="-20" width="100" height="35" rx="5" fill="#0f766e"/>
    <rect x="-45" y="-15" width="90" height="25" rx="3" fill="#069494"/>
    <rect x="-20" y="-25" width="40" height="8" rx="2" fill="#14b8a6"/>
    <!-- Handle -->
    <path d="M-10 -25 Q0 -35 10 -25" stroke="#0f766e" stroke-width="4" fill="none"/>
  </g>

  <!-- Floating coping tools -->

  <!-- Breathing symbol (lungs/air) -->
  <g transform="translate(80, 100)">
    <circle cx="0" cy="0" r="25" fill="#5eead4" opacity="0.3"/>
    <path d="M0 -10 Q-10 0 -8 10 Q-5 15 0 12 Q5 15 8 10 Q10 0 0 -10" fill="#069494" opacity="0.8"/>
    <!-- Air waves -->
    <path d="M-15 -5 Q-20 -8 -25 -5" stroke="#5eead4" stroke-width="2" fill="none"/>
    <path d="M15 -5 Q20 -8 25 -5" stroke="#5eead4" stroke-width="2" fill="none"/>
  </g>

  <!-- Music note (sound therapy) -->
  <g transform="translate(320, 90)">
    <circle cx="0" cy="0" r="22" fill="#fbbf24" opacity="0.2"/>
    <circle cx="-5" cy="8" r="6" fill="#f59e0b"/>
    <rect x="-2" y="-15" width="3" height="23" fill="#f59e0b"/>
    <path d="M1 -15 Q15 -20 15 -8 Q15 0 1 -5" fill="#f59e0b"/>
  </g>

  <!-- Exercise/movement (person stretching) -->
  <g transform="translate(70, 200)">
    <circle cx="0" cy="0" r="20" fill="#fb7185" opacity="0.2"/>
    <circle cx="0" cy="-5" r="6" fill="#fb7185"/>
    <path d="M0 1 L0 12" stroke="#fb7185" stroke-width="3"/>
    <path d="M-8 5 L0 2 L8 5" stroke="#fb7185" stroke-width="2"/>
    <path d="M-5 12 L0 12 L5 18" stroke="#fb7185" stroke-width="2"/>
  </g>

  <!-- Puzzle piece (problem solving) -->
  <g transform="translate(330, 190)">
    <circle cx="0" cy="0" r="22" fill="#6366f1" opacity="0.2"/>
    <path d="M-10 -10 L-3 -10 Q0 -15 3 -10 L10 -10 L10 -3 Q15 0 10 3 L10 10 L-10 10 L-10 3 Q-15 0 -10 -3 Z"
          fill="#6366f1"/>
  </g>

  <!-- Writing/journaling (pencil) -->
  <g transform="translate(120, 60)">
    <circle cx="0" cy="0" r="18" fill="#fbbf24" opacity="0.2"/>
    <rect x="-3" y="-12" width="6" height="20" rx="1" fill="#fbbf24" transform="rotate(-30)"/>
    <path d="M-5 8 L0 15 L5 8" fill="#d4d4d4" transform="rotate(-30)"/>
  </g>

  <!-- Nature/grounding (leaf) -->
  <g transform="translate(280, 60)">
    <circle cx="0" cy="0" r="20" fill="#069494" opacity="0.2"/>
    <path d="M0 12 Q-15 5 -10 -8 Q0 -15 10 -8 Q15 5 0 12" fill="#069494"/>
    <path d="M0 12 L0 -5" stroke="#0f766e" stroke-width="2"/>
  </g>

  <!-- Connection dots -->
  <circle cx="150" cy="80" r="3" fill="#5eead4" opacity="0.5"/>
  <circle cx="250" cy="75" r="3" fill="#5eead4" opacity="0.5"/>
  <circle cx="100" cy="150" r="2" fill="#069494" opacity="0.4"/>
  <circle cx="300" cy="140" r="2" fill="#069494" opacity="0.4"/>

  <defs>
    <linearGradient id="shieldGradient" x1="0%" y1="0%" x2="0%" y2="100%">
      <stop offset="0%" stop-color="#5eead4"/>
      <stop offset="100%" stop-color="#069494"/>
    </linearGradient>
  </defs>
</svg>