<svg xmlns="http://www.w3.org/2000/svg" viewBox="0 0 400 300" fill="none">
  <!-- Background circle -->
  <circle cx="200" cy="150" r="110" fill="#069494" opacity="0.08"/>

  <!-- Target/bullseye -->
  <circle cx="200" cy="140" r="80" fill="#fee2e2" stroke="#fecaca" stroke-width="2"/>
  <circle cx="200" cy="140" r="60" fill="white" stroke="#fecaca" stroke-width="2"/>
  <circle cx="200" cy="140" r="40" fill="#fee2e2" stroke="#fecaca" stroke-width="2"/>
  <circle cx="200" cy="140" r="20" fill="white" stroke="#fecaca" stroke-width="2"/>
  <circle cx="200" cy="140" r="8" fill="#069494"/>

  <!-- Arrow hitting bullseye -->
  <g transform="translate(200, 140) rotate(-45)">
    <!-- Arrow shaft -->
    <rect x="-60" y="-3" width="65" height="6" fill="#f59e0b"/>
    <!-- Arrow head -->
    <path d="M5 -8 L20 0 L5 8 Z" fill="#d97706"/>
    <!-- Arrow feathers -->
    <path d="M-60 -3 L-70 -12 L-55 -3 Z" fill="#fbbf24"/>
    <path d="M-60 3 L-70 12 L-55 3 Z" fill="#fbbf24"/>
  </g>

  <!-- Checkmarks / completed goals floating -->
  <g transform="translate(80, 80)">
    <circle cx="0" cy="0" r="18" fill="#069494"/>
    <path d="M-8 0 L-3 5 L8 -6" stroke="white" stroke-width="3" fill="none" stroke-linecap="round" stroke-linejoin="round"/>
  </g>

  <g transform="translate(320, 100)">
    <circle cx="0" cy="0" r="15" fill="#14b8a6"/>
    <path d="M-6 0 L-2 4 L6 -5" stroke="white" stroke-width="2.5" fill="none" stroke-linecap="round" stroke-linejoin="round"/>
  </g>

  <g transform="translate(100, 220)">
    <circle cx="0" cy="0" r="12" fill="#5eead4"/>
    <path d="M-5 0 L-2 3 L5 -4" stroke="white" stroke-width="2" fill="none" stroke-linecap="round" stroke-linejoin="round"/>
  </g>

  <!-- Progress bar visual -->
  <g transform="translate(140, 250)">
    <rect x="0" y="0" width="120" height="12" rx="6" fill="#e2e8f0"/>
    <rect x="0" y="0" width="90" height="12" rx="6" fill="url(#progressGradient)"/>
    <text x="130" y="10" font-size="12" fill="#069494" font-weight="bold">75%</text>
  </g>

  <!-- Stars for achievements -->
  <path d="M60 180 L63 190 L74 190 L65 196 L68 206 L60 200 L52 206 L55 196 L46 190 L57 190 Z" fill="#fbbf24" opacity="0.8"/>
  <path d="M330 180 L332 187 L340 187 L334 192 L336 199 L330 195 L324 199 L326 192 L320 187 L328 187 Z" fill="#fbbf24" opacity="0.7"/>

  <!-- Decorative dots -->
  <circle cx="50" cy="120" r="4" fill="#5eead4" opacity="0.6"/>
  <circle cx="350" cy="150" r="3" fill="#5eead4" opacity="0.5"/>
  <circle cx="300" cy="240" r="4" fill="#069494" opacity="0.4"/>

  <!-- Flag for goal achieved -->
  <g transform="translate(280, 60)">
    <rect x="0" y="0" width="3" height="40" fill="#0f766e"/>
    <path d="M3 0 L25 8 L3 16 Z" fill="#fb7185"/>
  </g>

  <defs>
    <linearGradient id="progressGradient" x1="0%" y1="0%" x2="100%" y2="0%">
      <stop offset="0%" stop-color="#069494"/>
      <stop offset="100%" stop-color="#5eead4"/>
    </linearGradient>
  </defs>
</svg>